<svg xmlns="http://www.w3.org/2000/svg" version="1.1" xmlns:xlink="http://www.w3.org/1999/xlink" width="1000" height="1000"><g clip-path="url(#SvgjsClipPath1058)"><rect width="1000" height="1000" fill="#ffffff"></rect><g transform="matrix(10.568032130133085,0,0,10.568032130133085,100.00000000000006,318.49403607081126)"><svg xmlns="http://www.w3.org/2000/svg" version="1.1" xmlns:xlink="http://www.w3.org/1999/xlink" width="75.69999694824219" height="34.35000228881836"><svg xmlns="http://www.w3.org/2000/svg" viewBox="0 9.550000190734863 75.69999694824219 34.35000228881836" data-asc="0.878" width="75.69999694824219" height="34.35000228881836"><defs><clipPath id="SvgjsClipPath1058"><rect width="1000" height="1000" x="0" y="0" rx="350" ry="350"></rect></clipPath></defs><g fill="#000000"><g transform="translate(0, 0)"><path d="M0 43.90L0 9.55L13.05 9.55L17.20 24.85Q17.45 25.65 17.80 27.02Q18.15 28.40 18.50 29.90Q18.85 31.40 19.10 32.60L19.50 32.60Q19.70 31.65 20 30.32Q20.30 29 20.65 27.52Q21 26.05 21.30 24.80L25.50 9.55L38.20 9.55L38.20 43.90L29.50 43.90L29.50 29.25Q29.50 27.10 29.52 24.90Q29.55 22.70 29.60 20.90Q29.65 19.10 29.65 18.30L29.25 18.30Q29.10 19.05 28.77 20.47Q28.45 21.90 28.08 23.42Q27.70 24.95 27.40 26.05L22.40 43.90L15.20 43.90L10.15 26.05Q9.90 25.05 9.55 23.65Q9.20 22.25 8.88 20.80Q8.55 19.35 8.30 18.35L7.90 18.35Q7.95 19.65 8 21.52Q8.05 23.40 8.10 25.42Q8.15 27.45 8.15 29.25L8.15 43.90L0 43.90ZM45.70 43.90L45.70 9.55L64.60 9.55Q68.10 9.55 70.58 10.97Q73.05 12.40 74.38 14.92Q75.70 17.45 75.70 20.85Q75.70 24.35 74.33 26.90Q72.95 29.45 70.43 30.88Q67.90 32.30 64.40 32.30L54.65 32.30L54.65 43.90L45.70 43.90M54.65 25.40L62.30 25.40Q64.40 25.40 65.50 24.22Q66.60 23.05 66.60 20.95Q66.60 19.45 66.13 18.50Q65.65 17.55 64.70 17.02Q63.75 16.50 62.30 16.50L54.65 16.50L54.65 25.40Z"></path></g></g></svg></svg></g></g></svg>